<?xml version="1.0" standalone="no"?>
<!DOCTYPE svg PUBLIC "-//W3C//DTD SVG 20010904//EN"
 "http://www.w3.org/TR/2001/REC-SVG-20010904/DTD/svg10.dtd">
<svg version="1.0" xmlns="http://www.w3.org/2000/svg"
 width="172.000000pt" height="43.000000pt" viewBox="0 0 172.000000 43.000000"
 preserveAspectRatio="xMidYMid meet">
<metadata>
Created by potrace 1.16, written by Peter Selinger 2001-2019
</metadata>
<g transform="translate(0.000000,43.000000) scale(0.100000,-0.100000)"
fill="#000000" stroke="none">
<path d="M124 411 c-48 -22 -90 -63 -110 -108 -19 -43 -18 -137 2 -179 22 -46
85 -100 131 -113 52 -15 1373 -15 1426 0 48 13 102 61 129 112 16 32 19 54 16
106 -4 84 -40 139 -112 176 l-50 25 -695 0 c-657 0 -698 -1 -737 -19z m978
-148 c56 -50 -33 -151 -97 -109 -42 28 -40 79 4 113 23 18 71 16 93 -4z"/>
</g>
</svg>
